<?xml version="1.0" encoding="UTF-8" standalone="no"?>
<!-- Generator: Adobe Illustrator 19.0.0, SVG Export Plug-In . SVG Version: 6.00 Build 0)  -->

<svg
   version="1.1"
   x="0px"
   y="0px"
   viewBox="0 0 310 80"
   xml:space="preserve"
   id="svg1170"
   sodipodi:docname="logo_horizontal_cores.svg"
   inkscape:label="logo_01"
   inkscape:version="1.1.2 (0a00cf5339, 2022-02-04)"
   width="310"
   height="80"
   inkscape:export-filename="/home/tcarreira/Nextcloud-ANSOL/Pasta partilhada - FSL/FSL2025/Comunicação/Logotipo/logo_horizontal_cores.png"
   inkscape:export-xdpi="600"
   inkscape:export-ydpi="600"
   xmlns:inkscape="http://www.inkscape.org/namespaces/inkscape"
   xmlns:sodipodi="http://sodipodi.sourceforge.net/DTD/sodipodi-0.dtd"
   xmlns="http://www.w3.org/2000/svg"
   xmlns:svg="http://www.w3.org/2000/svg"><defs
   id="defs1174" /><sodipodi:namedview
   id="namedview1172"
   pagecolor="#ffffff"
   bordercolor="#666666"
   borderopacity="1.0"
   inkscape:pageshadow="2"
   inkscape:pageopacity="0.0"
   inkscape:pagecheckerboard="0"
   showgrid="false"
   inkscape:object-nodes="true"
   inkscape:snap-others="true"
   inkscape:snap-object-midpoints="true"
   inkscape:snap-bbox="true"
   inkscape:snap-bbox-midpoints="true"
   inkscape:bbox-nodes="true"
   inkscape:snap-center="true"
   inkscape:snap-bbox-edge-midpoints="true"
   inkscape:snap-intersection-paths="true"
   inkscape:snap-smooth-nodes="true"
   inkscape:snap-midpoints="true"
   inkscape:bbox-paths="true"
   inkscape:object-paths="true"
   inkscape:snap-text-baseline="true"
   inkscape:zoom="0.26063831"
   inkscape:cx="-1356.2857"
   inkscape:cy="-80.571425"
   inkscape:window-width="2560"
   inkscape:window-height="1043"
   inkscape:window-x="0"
   inkscape:window-y="0"
   inkscape:window-maximized="1"
   inkscape:current-layer="svg1170"
   units="px"
   inkscape:snap-page="false"
   scale-x="1"
   inkscape:document-units="in"
   inkscape:snap-nodes="true" />
<style
   type="text/css"
   id="style2">
	.st0{fill:#010202;}
	.st1{fill:#FFFFFF;}
	.st2{fill:#243572;}
	.st3{fill:#1E68AF;}
	.st4{fill:#5F98C8;}
	.st5{fill:#6AA9DB;}
	.st6{fill:#398FC8;}
	.st7{fill:#1E3C75;}
</style>


<g
   id="g6030"
   inkscape:label="logo_texto_cores"
   transform="matrix(0.48783997,0,0,0.48783997,57.273375,199.30414)"><g
   id="g5998">
				<g
   id="g5940">
					<path
   id="path5938"
   class="st2"
   d="m 98.1,-338.1 c 1,0 1.8,0.4 2.5,1.1 0.6,0.7 1.1,1.6 1.4,2.8 0.4,1.3 0.6,2.5 0.7,3.9 0.1,1.4 0.2,2.8 0.2,4.1 l 11.8,-1.1 c 0,-3.2 -0.3,-6.2 -0.9,-8.8 -0.6,-2.7 -1.6,-5 -2.9,-6.9 -1.3,-1.9 -3,-3.4 -5.2,-4.5 -2.1,-1 -4.7,-1.6 -7.8,-1.6 -2.5,0 -4.7,0.5 -6.6,1.5 -1.9,1 -3.6,2.4 -5,4.1 -1.3,1.7 -2.4,3.7 -3.1,6.1 -0.7,2.3 -1.1,4.8 -1.1,7.6 0,3.4 0.6,6.8 1.8,10 1.2,3.2 2.9,6.5 5.1,9.8 2.2,3.3 4.7,6.9 7.6,10.8 1.7,2.3 3.2,4.7 4.4,7.2 1.2,2.5 1.8,5 1.8,7.3 0,2.3 -0.4,4.4 -1.1,6 -0.7,1.6 -2,2.5 -3.8,2.5 -1.1,0 -2,-0.4 -2.7,-1.2 -0.7,-0.8 -1.2,-1.8 -1.6,-3.1 -0.3,-1.3 -0.6,-2.8 -0.7,-4.5 -0.1,-1.7 -0.2,-3.4 -0.2,-5.2 l -11.7,1 c 0,3.7 0.3,7 0.8,9.9 0.6,2.9 1.5,5.5 2.7,7.5 1.2,2.1 3,3.7 5.2,4.8 2.2,1.1 4.9,1.6 8.3,1.6 v 0 c 3,0 5.5,-0.5 7.6,-1.6 2.1,-1 3.8,-2.5 5.2,-4.4 1.4,-1.9 2.4,-4 3,-6.5 0.6,-2.5 0.9,-5.3 0.9,-8.2 0,-4.7 -1.1,-8.9 -3.2,-12.7 -2.1,-3.8 -4.9,-8 -8.3,-12.6 -2.8,-3.9 -5.1,-7.3 -6.7,-10.2 -1.7,-2.9 -2.5,-5.9 -2.5,-9 0,-2.4 0.3,-4.3 0.9,-5.6 0.5,-1.2 1.6,-1.9 3.2,-1.9 z" />
				</g>
				<g
   id="g5944">
					<path
   id="path5942"
   class="st2"
   d="m 335.6,-326.1 c -2.2,-1.4 -4.7,-2.1 -7.8,-2.1 -4.6,0 -8.2,1.5 -10.8,4.5 -2.6,3 -3.8,6.8 -3.8,11.6 v 30.7 c 0,4.5 1.3,8.3 3.8,11.4 2.6,3.1 6.2,4.6 10.7,4.6 v 0 c 4.6,0 8.2,-1.4 10.8,-4.3 2.6,-2.9 3.8,-6.7 3.8,-11.4 v -7 h -10.5 v 6.7 c 0,1.7 -0.3,3.2 -0.9,4.4 -0.6,1.2 -1.6,1.8 -3.1,1.8 -1.4,0 -2.4,-0.6 -3.1,-1.9 -0.7,-1.3 -1,-2.7 -1,-4.2 v -13.3 h 18.6 v -17.8 c 0,-3 -0.6,-5.7 -1.7,-8 -1.2,-2.4 -2.8,-4.3 -5,-5.7 z m -3.8,22.7 h -8.1 v -8.6 c 0,-1.6 0.3,-3 1,-4.3 0.7,-1.3 1.7,-2 3.1,-2 1.5,0 2.6,0.6 3.1,1.9 0.6,1.2 0.9,2.7 0.9,4.4 z" />
				</g>
				<g
   id="g5948">
					<polygon
   id="polygon5946"
   class="st2"
   points="366.2,-266.2 394.2,-266.2 394.2,-277.3 378.2,-277.3 378.2,-348.2 366.2,-348.2 " />
				</g>
				<g
   id="g5952">
					<rect
   id="rect5950"
   x="398"
   y="-348.20001"
   class="st7"
   width="11.3"
   height="11.3" />
				</g>
				<g
   id="g5956">
					<rect
   id="rect5954"
   x="398"
   y="-327.20001"
   class="st2"
   width="11.3"
   height="61.099998" />
				</g>
				<g
   id="g5960">
					<path
   id="path5958"
   class="st2"
   d="m 133.4,-328.1 c -4.5,0 -8,1.5 -10.6,4.6 -2.6,3 -3.8,6.8 -3.8,11.5 v 30.6 c 0,4.7 1.3,8.5 3.8,11.6 2.6,3 6.1,4.5 10.6,4.5 4.5,0 8,-1.5 10.5,-4.5 2.6,-3.1 3.9,-6.9 3.9,-11.6 V -312 c 0,-4.7 -1.3,-8.5 -3.9,-11.5 -2.6,-3.1 -6.1,-4.6 -10.5,-4.6 z m 3.8,46.6 c 0,1.8 -0.3,3.3 -0.8,4.5 -0.6,1.2 -1.6,1.7 -3,1.7 -1.5,0 -2.5,-0.6 -3,-1.7 -0.6,-1.2 -0.8,-2.7 -0.8,-4.5 V -312 c 0,-1.9 0.3,-3.4 0.8,-4.5 0.6,-1.2 1.6,-1.7 3,-1.7 1.4,0 2.5,0.6 3,1.7 0.6,1.2 0.8,2.7 0.8,4.5 z" />
				</g>
				<g
   id="g5964">
					<path
   id="path5962"
   class="st7"
   d="m 173.1,-343 c 0.6,-0.2 1.3,-0.6 1.9,-1.1 v -2.9 c -1.7,1.1 -3.6,2 -5.6,2.9 0.2,1.2 0.9,1.9 3.7,1.1 z" />
				</g>
				<g
   id="g5968">
					<path
   id="path5966"
   class="st2"
   d="m 159,-343 c -2.2,3.1 -3.3,7.2 -3.3,12.4 v 3.3 H 150 v 10.2 h 5.7 v 50.9 H 167 v -50.9 h 6.8 v -10.2 H 167 v -4.8 c 0,-0.9 0.1,-1.7 0.3,-2.4 -0.8,-0.2 -1.6,-0.4 -2.4,-0.8 -3.4,-1.7 -5.2,-4.5 -5.9,-7.7 z" />
				</g>
				<g
   id="g5972">
					<path
   id="path5970"
   class="st2"
   d="m 181.8,-332.1 v 4.9 h -5.7 v 10.2 h 5.7 v 32.4 c 0,4 0.3,7.5 1,10.4 0.7,2.9 2,5.1 3.8,6.7 1.9,1.6 4.6,2.3 8.1,2.3 v 0 c 1.5,0 2.7,-0.1 3.6,-0.3 0.9,-0.2 1.7,-0.4 2.5,-0.7 v -10.3 c -0.4,0.2 -0.9,0.3 -1.3,0.4 -0.5,0.1 -1.1,0.2 -1.8,0.2 -1.6,0 -2.8,-0.6 -3.5,-1.7 -0.7,-1.2 -1.1,-2.9 -1.1,-5.3 v -34 h 7.8 v -10.2 h -7.8 v -4.9 c -1.4,0.9 -2.9,1.5 -4.7,1.7 -2.4,0.2 -4.8,-0.5 -6.6,-1.8 z" />
				</g>
				<g
   id="g5976">
					<polygon
   id="polygon5974"
   class="st2"
   points="429.7,-291.8 429.4,-285.7 428.5,-285.7 428.2,-291.8 424.4,-327.2 413.4,-327.2 423.4,-266.2 434.5,-266.2 444.4,-327.2 433.5,-327.2 " />
				</g>
				<g
   id="g5980">
					<path
   id="path5978"
   class="st2"
   d="m 461.4,-324.4 c -1.2,1.2 -1.8,2.5 -2.1,4 v -6.8 H 448 v 61.1 h 11.3 v -42.4 c 0,-2.3 0.7,-4.1 2.2,-5.5 1.5,-1.3 3.5,-2 5.9,-2 0.5,0 1,0 1.6,0.1 0.5,0 1.1,0.1 1.6,0.3 v -12.5 c -1.7,0 -3.3,0.3 -5,1 -1.7,0.7 -3.1,1.6 -4.2,2.7 z" />
				</g>
				<g
   id="g5984">
					<path
   id="path5982"
   class="st2"
   d="m 502.6,-294.6 v -17.8 c 0,-3 -0.6,-5.7 -1.7,-8 -1.2,-2.4 -2.8,-4.3 -5,-5.6 -2.2,-1.4 -4.7,-2.1 -7.8,-2.1 -4.6,0 -8.2,1.5 -10.8,4.5 -2.6,3 -3.8,6.8 -3.8,11.6 v 30.7 c 0,4.5 1.3,8.3 3.8,11.4 2.6,3.1 6.2,4.6 10.7,4.6 v 0 c 4.6,0 8.2,-1.4 10.8,-4.3 2.6,-2.9 3.8,-6.7 3.8,-11.4 v -7 h -10.5 v 6.7 c 0,1.7 -0.3,3.2 -0.9,4.4 -0.6,1.2 -1.6,1.8 -3.1,1.8 -1.4,0 -2.4,-0.6 -3.1,-1.9 -0.7,-1.3 -1,-2.7 -1,-4.2 v -13.3 h 18.6 z M 492.1,-312 v 8.6 H 484 v -8.6 c 0,-1.6 0.3,-3 1,-4.3 0.7,-1.3 1.7,-2 3.1,-2 1.5,0 2.6,0.6 3.1,1.9" />
				</g>
				<g
   id="g5988">
					<polygon
   id="polygon5986"
   class="st2"
   points="229.1,-327.2 222.4,-327.2 217.7,-295.3 217.2,-289 216.5,-289 216.1,-295.3 213.1,-327.2 202.2,-327.2 211.3,-266.2 220.6,-266.2 225,-295.3 225.5,-301 226,-301 226.6,-295.3 230.9,-266.2 240.3,-266.2 249.3,-327.2 238.5,-327.2 235.5,-295.3 235,-289 234.4,-289 233.8,-295.3 " />
				</g>
				<g
   id="g5992">
					<path
   id="path5990"
   class="st2"
   d="m 281.4,-276.8 v -36.4 c 0,-2.9 -0.6,-5.5 -1.7,-7.7 -1.1,-2.3 -2.7,-4 -4.7,-5.3 -2,-1.3 -4.5,-2 -7.3,-2 -2.9,0 -5.5,0.7 -7.8,2 -2.3,1.3 -4.1,3.2 -5.4,5.6 -1.3,2.4 -2,5.3 -2,8.7 v 2.6 h 11.3 v -2.9 c 0,-1.7 0.2,-3.2 0.7,-4.4 0.4,-1.2 1.3,-1.8 2.6,-1.8 1.4,0 2.2,0.6 2.6,1.7 0.4,1.1 0.6,2.4 0.6,3.9 v 6.7 c -0.2,0.5 -0.8,1.1 -1.8,1.7 -1.2,0.7 -2.4,1.4 -3.6,2 -4.5,2.3 -7.9,5.1 -10.2,8.3 -2.2,3.2 -3.3,7.4 -3.3,12.7 0,5.4 0.9,9.5 2.8,12.1 1.9,2.6 4.1,4 6.7,4 v 0 c 1.9,0 3.5,-0.5 4.9,-1.6 1.4,-1.1 2.6,-2.5 3.6,-4.2 h 0.8 c 0,0.8 0.1,1.5 0.1,2.3 0.1,1.2 0.4,2 0.9,2.6 h 11 c -0.2,-1.3 -0.4,-2.8 -0.6,-4.2 -0.1,-1.5 -0.2,-3.6 -0.2,-6.4 z m -11.2,-3.8 c 0,1 -0.5,2 -1.4,2.9 -0.9,0.9 -2,1.3 -3.3,1.3 -1.1,0 -1.9,-0.6 -2.4,-1.9 -0.5,-1.3 -0.7,-2.5 -0.7,-3.8 0,-2.9 0.6,-5.5 1.8,-7.8 1.3,-2.3 3.3,-4.1 6,-5.2 z" />
				</g>
				<g
   id="g5996">
					<path
   id="path5994"
   class="st2"
   d="m 301.1,-324.4 c -1.2,1.2 -1.8,2.5 -2.1,4 v -6.8 h -11.3 v 61.1 H 299 v -42.4 c 0,-2.3 0.7,-4.1 2.2,-5.5 1.5,-1.3 3.5,-2 5.9,-2 0.5,0 1,0 1.6,0.1 0.5,0 1.1,0.1 1.6,0.3 v -12.5 c -1.7,0 -3.3,0.3 -5,1 -1.6,0.7 -3,1.6 -4.2,2.7 z" />
				</g>
			</g><g
   id="g6028">
				<g
   id="g6002">
					<path
   id="path6000"
   class="st6"
   d="m 290.6,-377.4 c -0.7,-2 -1.6,-4 -2.6,-5.9 -1,-1.9 -2,-3.4 -3.1,-4.6 -0.5,0.1 -1.1,0.3 -1.7,0.6 -0.6,0.3 -1.1,0.7 -1.7,1.1 -0.5,0.4 -1,0.8 -1.4,1.3 -0.4,0.5 -0.7,0.9 -0.8,1.2 1.3,2 2.4,4 3.6,6.1 0.9,1.8 1.7,3.4 2.3,4.9 0.6,1.4 1,2.9 1.3,4.4 0.3,1.5 0.6,3 0.8,4.4 -0.8,-0.8 -1.7,-1.4 -2.7,-1.8 -1,-0.5 -1.9,-0.7 -2.7,-0.7 v 0 c -1,0.2 -2.1,0.8 -3.1,1.6 -1.2,0.9 -2.2,1.9 -3.2,3 -1.1,1.3 -2.1,2.6 -3,4 -0.9,1.5 -1.7,3 -2.4,4.6 -0.7,1.5 -1.2,3.1 -1.7,4.7 -0.4,1.6 -0.6,3 -0.6,4.4 0,2.5 0.7,4.5 2.1,5.9 1.5,1.5 3.6,2.4 6.3,2.7 1.3,-0.2 2.7,-0.8 4,-1.8 1.3,-0.9 2.6,-2.1 3.9,-3.6 1.3,-1.5 2.5,-3.2 3.5,-5 1.1,-1.9 2,-3.8 2.8,-5.9 0.8,-2.1 1.5,-4.2 1.9,-6.4 0.5,-2.2 0.7,-4.3 0.7,-6.3 0,-2.1 -0.2,-4.2 -0.7,-6.5 -0.4,-2.1 -1,-4.3 -1.8,-6.4 z m -3.2,16.3 c 0,2.3 -0.4,4.8 -1.1,7.3 -0.7,2.4 -1.5,4.8 -2.7,7.1 -1.1,2.2 -2.4,4.1 -3.7,5.7 -1.4,1.6 -2.8,2.7 -4.1,3.1 v 0 c -1.8,-0.3 -2.7,-1.4 -2.7,-3.4 0,-1 0.2,-2.2 0.7,-3.6 0.5,-1.4 1.1,-2.9 1.8,-4.2 0.8,-1.5 1.6,-3 2.5,-4.4 0.9,-1.4 1.9,-2.8 3,-4 1,-1.2 2.1,-2.3 3.2,-3.3 1.1,-0.9 2.1,-1.6 3,-2 0,0.2 0.1,0.3 0.1,0.5 z" />
				</g>
				<g
   id="g6006">
					<path
   id="path6004"
   class="st6"
   d="m 205,-364.1 c -0.6,-0.8 -1.2,-1.5 -1.9,-2.2 -0.7,-0.7 -1.4,-1.3 -2.2,-1.9 -0.7,-0.6 -1.3,-0.9 -1.7,-1.1 -1.1,0.3 -2.1,0.7 -3,1.3 -0.9,0.6 -1.8,1.4 -2.5,2.3 -0.7,0.9 -1.3,1.9 -1.7,2.9 -0.4,1 -0.7,2.1 -0.7,3.1 0,0.9 0.1,1.7 0.3,2.5 0.2,0.8 0.4,1.7 0.6,2.6 0.2,0.9 0.5,1.8 0.7,2.7 0.2,0.9 0.3,1.9 0.3,2.9 -1.7,0.1 -3.3,0.5 -4.9,1.2 -1.4,0.6 -2.7,1.5 -3.9,2.6 -1.1,1 -1.9,2.3 -2.5,3.6 -0.6,1.3 -1,2.8 -0.9,4.3 0.2,0.6 0.5,1.1 0.8,1.6 0.4,0.5 0.8,1 1.4,1.5 0.5,0.4 1.1,0.8 1.7,1.1 0.5,0.3 1.1,0.4 1.7,0.5 3.2,-0.3 5.7,-1.5 7.5,-3.5 1.8,-2 2.7,-4.7 2.7,-8 0,-0.5 0,-0.9 -0.1,-1.2 v -0.9 c 0,-0.2 0,-0.4 0.1,-0.5 0.1,-0.2 0.3,-0.3 0.5,-0.4 0.3,-0.1 0.7,-0.2 1.2,-0.4 0.6,-0.2 1.3,-0.3 2.2,-0.5 0.2,-0.2 0.2,-0.4 0.2,-0.8 0,-0.2 0,-0.4 -0.1,-0.5 -0.7,0 -1.3,0 -2,0.1 -0.6,0 -1.4,0 -2.2,0.1 0,-0.1 -0.1,-0.3 -0.1,-0.7 0,-3.8 0.4,-6.7 1.2,-8.7 0.8,-2 2,-3 3.6,-3 0.4,0 0.8,0.2 1,0.6 0.3,0.4 0.4,0.8 0.4,1.4 0,0.3 -0.1,0.6 -0.2,0.8 -0.1,0.3 -0.2,0.6 -0.3,0.9 -0.1,0.3 -0.2,0.6 -0.4,0.9 -0.1,0.2 -0.1,0.4 -0.1,0.5 0.1,0.6 0.3,0.9 0.8,0.9 0.3,0 0.7,-0.2 1,-0.7 0.4,-0.4 0.7,-1 1,-1.6 0.3,-0.7 0.6,-1.4 0.8,-2.2 0.2,-0.8 0.4,-1.6 0.4,-2.4 v 0 c 0.2,-0.4 -0.1,-1 -0.7,-1.7 z m -12.1,21.5 c -0.7,2.2 -2,4.1 -3.7,5.6 -0.8,0.7 -1.7,1.3 -2.7,1.7 -0.8,-0.6 -1.2,-1.3 -1.2,-2.1 0,-0.7 0.3,-1.5 0.8,-2.4 0.6,-0.9 1.3,-1.8 2.1,-2.6 0.8,-0.8 1.7,-1.6 2.7,-2.2 0.9,-0.6 1.8,-1 2.6,-1.1 0,1.1 -0.2,2.1 -0.6,3.1 z" />
				</g>
				<g
   id="g6010">
					<path
   id="path6008"
   class="st6"
   d="m 154.9,-363.4 v 0 c -0.9,0 -2.1,0.1 -3.6,0.2 -1.5,0.2 -2.9,0.4 -4.4,0.6 1.1,-2.5 2,-4.5 2.7,-6.2 0.8,-1.6 1.4,-2.9 1.8,-3.9 0.5,-1 0.8,-1.8 1.1,-2.4 0.3,-0.6 0.6,-1 0.8,-1.4 1.5,-0.2 3.1,-0.4 4.7,-0.6 1.7,-0.2 3.6,-0.3 5.6,-0.3 0.7,0 1.3,0 2,0.1 1,0.1 2.1,0.1 3.1,0.2 -0.4,-1.7 -0.9,-3.1 -1.7,-4 -0.7,-0.9 -1.5,-1.4 -2.4,-1.4 -0.7,0 -1.6,0.1 -2.9,0.2 -1.3,0.1 -2.8,0.3 -4.6,0.4 -1.7,0.2 -3.7,0.3 -5.9,0.5 -2.2,0.1 -4.5,0.2 -7,0.2 -1.2,0 -2.2,0 -2.9,-0.1 -0.7,0 -1.4,-0.1 -2.2,-0.2 -0.2,0.3 -0.3,0.7 -0.4,1.1 -0.1,0.4 -0.1,0.8 -0.1,1.1 0,1.1 0.5,2.1 1.4,2.8 0.9,0.7 2.2,1.1 3.7,1.1 h 0.3 c -0.2,1.2 -0.5,2.3 -0.8,3.4 -0.3,1.1 -0.6,2.1 -0.9,3.2 -0.4,1.1 -0.7,2.2 -1.2,3.4 -0.4,1.2 -0.9,2.6 -1.5,4.1 -1.3,0.3 -2.4,0.6 -3.3,0.9 -0.9,0.2 -1.5,0.5 -1.7,0.7 0.5,1.4 1.6,2.4 3.3,2.9 -0.9,2.4 -1.8,4.7 -2.8,7.1 -0.8,1.9 -1.4,3.6 -2,5 -0.6,1.3 -1,2.5 -1.4,3.4 -0.4,0.9 -0.7,1.6 -1,2.3 0.9,1.5 1.9,2.7 2.9,3.5 1,0.8 2.3,1.4 3.6,1.7 0.7,-3.7 1.5,-7.3 2.7,-10.9 1.1,-3.7 2.6,-7.6 4.4,-11.8 1.6,-0.2 3.3,-0.5 5.1,-0.8 1.8,-0.3 3.6,-0.5 5.3,-0.5 0.8,0 1.5,0 2.3,0.1 0.6,0 1.2,0.1 1.7,0.2 0.1,-0.2 0.2,-0.5 0.2,-0.8 0,-0.4 0.1,-0.7 0.1,-1 0,-1.3 -0.4,-2.3 -1.1,-3 -0.8,-0.8 -1.7,-1.1 -3,-1.1 z" />
				</g>
				<g
   id="g6014">
					<path
   id="path6012"
   class="st6"
   d="m 180.6,-346.3 c -0.7,0.8 -1.4,1.5 -2.2,2.3 -0.8,0.8 -1.7,1.6 -2.6,2.3 -0.9,0.7 -1.9,1.2 -2.9,1.7 -1,0.5 -2.1,0.7 -3.1,0.7 -0.6,0 -1,-0.1 -1.4,-0.4 -0.4,-0.3 -0.6,-0.7 -0.8,-1.2 -0.2,-0.5 -0.3,-1 -0.4,-1.5 -0.1,-0.6 -0.1,-1.1 -0.1,-1.6 v -0.8 c 0,-0.3 0.1,-0.5 0.1,-0.8 2.5,-1 4.7,-2 6.6,-3.1 1.9,-1.1 3.5,-2.3 4.8,-3.6 1.3,-1.3 2.4,-2.9 3.1,-4.6 0.7,-1.8 1.1,-3.9 1.3,-6.3 v 0 c -1.6,-2 -3.3,-3.1 -5.1,-3.4 -1.3,0 -2.6,0.3 -4,0.9 -1.3,0.6 -2.6,1.4 -3.8,2.4 -1.3,1.1 -2.5,2.3 -3.5,3.6 -1.1,1.4 -2,2.9 -2.8,4.4 -0.8,1.6 -1.4,3.2 -1.9,4.9 -0.4,1.7 -0.7,3.3 -0.7,4.9 0,2.4 0.8,4.4 2.3,6.1 1.5,1.7 3.7,2.6 6.4,3 1.9,-0.4 3.9,-1.4 6,-3 2.1,-1.6 4.1,-3.6 5.9,-5.9 -0.5,-0.3 -0.9,-0.6 -1.2,-1 z m -11.1,-6.7 c 0.8,-1.6 1.7,-3 2.7,-4.2 1,-1.2 2.1,-2.1 3.3,-2.8 1.1,-0.7 2.3,-1.1 3.3,-1.3 -0.2,2.7 -1.3,5.3 -3.4,7.6 -2.1,2.3 -4.7,4.2 -7.9,5.8 0.5,-1.8 1.1,-3.5 2,-5.1 z" />
				</g>
				<g
   id="g6018">
					<path
   id="path6016"
   class="st6"
   d="m 219.4,-339.5 c -1.1,0.4 -2.2,0.7 -3.4,0.9 -1.3,-0.2 -2,-1.2 -2,-2.9 0,-1.2 0.1,-2.6 0.4,-4.2 0.3,-1.7 0.8,-3.3 1.2,-4.9 0.6,-1.8 1.2,-3.6 2,-5.4 0.8,-1.9 1.7,-3.8 2.7,-5.7 2.8,-0.1 5.1,-0.5 7.1,-1.2 0,-0.3 -0.1,-0.6 -0.2,-0.9 -0.1,-0.3 -0.3,-0.6 -0.5,-0.8 -1.6,0.2 -3.2,0.2 -4.9,0.2 0.9,-1.5 1.8,-2.9 2.7,-4.4 1,-1.4 2,-2.8 3.1,-4.2 -0.2,-0.2 -0.6,-0.5 -1.1,-0.7 -0.5,-0.2 -1.1,-0.5 -1.7,-0.7 -0.6,-0.2 -1.3,-0.4 -1.9,-0.5 -0.6,-0.2 -1.1,-0.2 -1.5,-0.2 -0.3,0.2 -0.8,0.6 -1.4,1.3 -0.6,0.7 -1.2,1.5 -1.8,2.5 -0.7,1.1 -1.4,2.1 -2,3.2 -0.7,1.1 -1.3,2.3 -1.9,3.5 -0.8,0 -1.7,-0.1 -2.6,-0.1 -0.9,-0.1 -1.9,-0.2 -3,-0.2 0,0.6 0.1,1.2 0.2,2 0.2,0.8 0.3,1.2 0.5,1.5 h 3.4 c -1.5,3.5 -2.7,7.2 -3.7,10.9 -0.5,1.7 -0.8,3.3 -1.1,4.7 -0.2,1.4 -0.4,2.6 -0.4,3.6 0,0.7 0.3,1.4 0.8,2.2 0.5,0.7 1.2,1.4 2,2 0.8,0.6 1.8,1.1 2.7,1.5 0.9,0.4 1.9,0.6 3,0.7 0.3,0 0.8,-0.2 1.4,-0.5 0.6,-0.3 1.3,-0.7 2,-1.2 0.7,-0.4 1.3,-0.9 1.8,-1.4 0.6,-0.5 1,-0.9 1.2,-1.2 0,-0.2 -0.2,-0.5 -0.4,-0.9 -0.8,0.5 -1.7,1.1 -2.7,1.5 z" />
				</g>
				<g
   id="g6022">
					<path
   id="path6020"
   class="st6"
   d="m 251.3,-361.2 c -0.3,-0.2 -0.6,-0.5 -1.1,-0.7 -0.4,-0.2 -0.9,-0.4 -1.5,-0.5 -0.5,-0.2 -1,-0.2 -1.4,-0.2 -0.4,0.9 -0.9,1.9 -1.4,2.8 -0.5,0.9 -1,1.9 -1.5,2.8 -0.5,0.9 -1,1.9 -1.5,2.7 -0.5,0.9 -0.9,1.7 -1.3,2.4 -2.1,3.6 -3.9,6.3 -5.5,8 -1.5,1.7 -2.8,2.7 -4,2.9 -0.6,-0.2 -0.8,-0.7 -0.8,-1.4 0,-1.8 0.4,-3.8 1.3,-5.9 0.9,-2.1 2,-4.1 3.3,-5.9 1.4,-1.9 2.9,-3.4 4.6,-4.7 1.7,-1.3 3.3,-2.1 4.9,-2.3 0,-0.4 -0.2,-0.8 -0.5,-1.2 -0.3,-0.5 -0.7,-1 -1.2,-1.5 -0.4,-0.5 -0.9,-0.9 -1.4,-1.2 -0.5,-0.4 -0.9,-0.6 -1.3,-0.7 -1.6,0.1 -3.3,0.8 -5,2.3 -1.7,1.4 -3.4,3.1 -4.9,5.2 -1.5,2.1 -2.7,4.4 -3.6,6.8 -0.9,2.5 -1.4,4.8 -1.4,7 0,2.1 0.5,3.8 1.4,5.1 0.9,1.3 2.1,2 3.6,2.1 0.9,-0.2 1.9,-0.6 3,-1.4 1.1,-0.8 2.2,-1.8 3.3,-3 1.1,-1.3 2.2,-2.7 3.1,-4.2 1,-1.6 2,-3.4 2.7,-5.2 -1.5,3.9 -2.3,7 -2.3,9.3 0,2.9 1.1,4.4 3.2,4.4 0.6,0 1.3,-0.1 2,-0.3 0.8,-0.2 1.4,-0.5 1.8,-0.8 -0.6,-0.3 -0.9,-0.8 -1.2,-1.5 -0.2,-0.8 -0.4,-1.7 -0.4,-2.8 0,-1 0.1,-2.2 0.4,-3.5 0.3,-1.5 0.7,-2.9 1.1,-4.3 0.5,-1.6 1.1,-3.2 1.7,-4.8 0.7,-1.7 1.4,-3.4 2.2,-5 0.1,-0.4 -0.1,-0.6 -0.4,-0.8 z" />
				</g>
				<g
   id="g6026">
					<path
   id="path6024"
   class="st6"
   d="m 314.7,-362.6 c -0.2,0 -0.4,0 -0.5,0.1 h -0.5 c -1.2,-2.1 -2.5,-3.5 -3.7,-4.2 -1.9,0 -3.9,0.8 -6.1,2.4 -1.4,1.1 -2.7,2.3 -3.9,3.7 -1.2,1.4 -2.2,2.9 -3.1,4.6 -0.9,1.6 -1.5,3.2 -2,4.9 -0.5,1.7 -0.7,3.3 -0.7,4.9 0,2.7 0.7,4.9 2,6.6 1.3,1.7 3.1,2.7 5.4,3 2.3,-0.5 4.5,-1.4 6.5,-2.6 2,-1.2 3.7,-2.8 5.2,-4.6 1.5,-1.8 2.6,-3.9 3.4,-6 0.8,-2.3 1.3,-4.7 1.2,-7.1 -0.1,-3.8 -1.1,-5.7 -3.2,-5.7 z m -2.1,11.7 c -0.6,2.1 -1.4,3.9 -2.5,5.5 -1,1.6 -2.3,3 -3.8,4.1 -1.4,1.1 -3.1,1.8 -4.9,2.2 -0.4,-0.1 -0.8,-0.6 -1.1,-1.5 -0.3,-0.9 -0.5,-1.8 -0.5,-2.7 0,-0.8 0.1,-1.7 0.4,-2.7 0.3,-1.1 0.6,-2.1 1,-3.1 0.4,-1.1 1,-2.2 1.5,-3.3 0.6,-1 1.2,-2 1.9,-3 1,-1.3 2.2,-2.5 3.5,-3.6 1.4,-1.1 3,-2 4.7,-2.5 0.3,0.5 0.5,1 0.6,1.5 0.1,0.6 0.2,1.4 0.2,2.4 -0.1,2.5 -0.4,4.7 -1,6.7 z" />
				</g>
			</g>
		
	</g><g
   id="g5910"
   transform="matrix(0.18570034,0,0,0.18570034,-128.51912,102.68664)"
   inkscape:label="logo_cores">
		<g
   id="g5908"><g
   id="g5862">
			<path
   id="path5860"
   class="st3"
   d="m 985.5,-504.3 c 3.4,-12.2 -4,-25.2 -16.1,-28.6 -12.2,-3.4 -25.2,4 -28.6,16.1 -3.4,12.2 4,25.2 16.1,28.6 12.2,3.4 25.2,-3.9 28.6,-16.1 z" />
		</g>
			<g
   id="g5868">
				<g
   id="g5866">
					<path
   class="st4"
   d="m 856.6,-386.7 c 0,32.3 -0.3,64.5 0,96.8 0.1,11.1 6.6,21.2 18,23.5 5,1 10.7,0.5 15.7,0.5 20.7,0 41.4,0 62.1,0 15.1,0 37.3,4.1 45.9,-11.8 3.2,-5.9 2.7,-12.2 2.7,-18.6 0,-9.3 0,-18.6 0,-28 0,-19.3 0,-38.6 0,-57.9 0,-8.3 -1.3,-16.2 -8.2,-21.9 -6.1,-5 -13,-5.2 -20.3,-5.2 -19.9,0 -39.7,0 -59.6,0 -8.9,0 -17.8,0 -26.7,0 -6.9,0 -13.6,-0.3 -19.8,3.8 -6.1,4.3 -9.8,11.4 -9.8,18.8 z m 61.1,-18.4 c 28,-4.6 56.8,9.2 70.7,33.9 14.1,25.1 10.7,57.1 -8.2,78.7 -18.8,21.4 -49.9,29 -76.4,18.6 -26.7,-10.5 -44.3,-37.2 -43.4,-65.9 1,-32.2 25.5,-60 57.3,-65.3 z"
   id="path5864" />
				</g>
			</g>
			<g
   id="g5874">
				<g
   id="g5872">
					<path
   class="st1"
   d="m 861.3,-326.5 c 6.1,37.3 41.3,62.5 78.6,56.4 37.3,-6.1 62.5,-41.3 56.4,-78.6 -6.1,-37.3 -41.3,-62.5 -78.6,-56.4 -37.3,6.1 -62.5,41.3 -56.4,78.6 z m 63.7,-34 c 12.6,-2.1 24.6,6.5 26.7,19.1 2.1,12.6 -6.5,24.6 -19.1,26.7 -12.6,2.1 -24.6,-6.5 -26.7,-19.1 -2.1,-12.7 6.5,-24.6 19.1,-26.7 z"
   id="path5870" />
				</g>
			</g>
			<g
   id="g5878">
				<path
   id="path5876"
   class="st3"
   d="m 834.2,-487.5 c 11.3,-0.8 21.7,7.1 23.4,18.4 0.9,6 0.2,12.5 0.2,18.5 0,13.9 0,27.7 0,41.6 9.1,-8.9 22.5,-7 34.1,-7 17.6,0 35.3,0 52.9,0 35.3,0 70.5,0 105.8,0 2.8,0 5.8,0.2 8.7,-0.2 13.2,-2 17.2,-22.3 4.6,-27.1 -7.9,-3 -16.4,-4.8 -24,-6.8 -37.3,-10 -74.6,-20 -112,-30 -15.6,-4.2 -31.2,-8.4 -46.8,-12.5 -8.8,-2.3 -17.6,-5.5 -26.8,-4.5 -8,0.9 -15.6,4.3 -21.5,9.7 0.5,0 1,-0.1 1.4,-0.1 0.1,0 -0.4,0 0,0 z" />
			</g>
			<g
   id="g5882">
				<path
   id="path5880"
   class="st6"
   d="m 1024,-187.7 c -12.4,1.1 -23.3,-7.9 -24.2,-20.2 -1,-13.3 -0.1,-27 -0.1,-40.3 0,-6 0,-12.1 0,-18.1 -7.9,7.7 -17.7,7 -27.7,7 -9.1,0 -18.3,0 -27.4,0 -12.2,0 -24.4,0 -36.6,0 -30,0 -59.9,0 -89.9,0 -6.6,0 -14.1,-1 -20.5,0.3 -13.6,2.7 -15.1,22.5 -2.4,27.6 7.4,3 15.9,4.4 23.6,6.5 38,10.2 75.9,20.3 113.9,30.5 15.3,4.1 30.7,8.2 46,12.3 8,2.1 15.9,4.8 24.3,3.9 8,-0.8 15.7,-4.2 21.7,-9.7 -0.3,0.2 -0.5,0.2 -0.7,0.2 z" />
			</g>
			<g
   id="g5886">
				<path
   id="path5884"
   class="st6"
   d="m 900.5,-187 c -11.7,-3 -24,3.4 -28,14.9 -4.2,12.3 2.8,25.9 15.2,29.7 12.1,3.7 25.3,-3.3 29,-15.4 3.7,-12.4 -3.7,-25.9 -16.2,-29.2 z" />
			</g>
			<g
   id="g5890">
				<path
   id="path5888"
   class="st2"
   d="m 850.4,-266.6 c 2.3,0 4.7,0 7,0 -8.9,-9.3 -7,-22.9 -7,-34.8 0,-17.9 0,-35.9 0,-53.8 0,-35.1 0,-70.1 0,-105.2 0,-4 0.3,-8.1 -1.4,-11.8 -6.1,-12.6 -23.5,-8.8 -27.2,3.2 -2.4,7.6 -4.2,15.5 -6.2,23.2 -10.2,38.2 -20.5,76.4 -30.7,114.6 -4,14.9 -8,29.7 -11.9,44.6 -2.1,7.7 -4.5,15.2 -3.7,23.3 0.8,8.1 4.3,15.8 9.7,21.8 -1.1,-8.6 2.9,-17.7 10.6,-22.1 6,-3.5 12.9,-2.9 19.6,-2.9 13.7,-0.1 27.5,-0.1 41.2,-0.1 z" />
			</g>
			<g
   id="g5894">
				<path
   id="path5892"
   class="st2"
   d="m 778.2,-365.7 c 3.4,-12.2 -4,-25.2 -16.1,-28.6 -12.2,-3.4 -25.2,4 -28.6,16.1 -3.4,12.2 4,25.2 16.1,28.6 12.2,3.5 25.2,-3.9 28.6,-16.1 z" />
			</g>
			<g
   id="g5898">
				<path
   id="path5896"
   class="st5"
   d="m 1107.7,-325.7 c -12.2,-3.3 -25.2,4.2 -28.4,16.4 -3.3,12.2 4.2,25.2 16.4,28.4 12.2,3.3 25.2,-4.2 28.4,-16.4 3.3,-12.2 -4.1,-25.1 -16.4,-28.4 -12.3,-3.3 12.4,3.3 0,0 z" />
			</g>
			<g
   id="g5902">
				<circle
   id="circle5900"
   class="st2"
   cx="928.79999"
   cy="-337.60001"
   r="23.200001" />
			</g>
			<g
   id="g5906">
				<path
   id="path5904"
   class="st5"
   d="m 1087.6,-399.6 c 2.5,-12.1 -0.7,-24.8 -9,-33.9 1.4,10.4 -4.8,21 -15,24.1 -6.2,1.9 -13.9,0.9 -20.3,0.9 -14.4,0 -28.8,0 -43.1,0 10.4,10.7 7,32.1 7,45.9 0,18.1 0,36.2 0,54.3 0,24.8 0,49.7 0,74.5 0,7.8 -0.2,15.7 0,23.5 0.1,2.8 0.4,5.5 1.7,8 6.5,11.7 23.2,8.2 26.9,-3.7 0.6,-1.9 1.1,-3.9 1.6,-5.9 8.8,-32.7 17.5,-65.4 26.3,-98.1 7.7,-28.9 15.6,-57.7 23.2,-86.6 0.2,-1 0.5,-2 0.7,-3 0,0 -0.1,0.6 0,0 z" />
			</g>
		</g>
		
	</g></svg>
